<svg width="166" height="21" viewBox="0 0 166 21" fill="none" xmlns="http://www.w3.org/2000/svg">
<path d="M26.5606 18.0072C26.5606 18.5392 26.9939 18.9705 27.5285 18.9705H37.8864C38.4209 18.9705 38.8543 18.5392 38.8543 18.0072V16.6824C38.8543 16.1504 38.4209 15.7191 37.8864 15.7191H34.5988V6.48131C34.5988 5.9493 34.1654 5.51803 33.6308 5.51803H27.5285C26.9939 5.51803 26.5605 5.9493 26.5605 6.48131V7.75654C26.5605 8.28854 26.9939 8.71982 27.5285 8.71982H31.0898V15.7191H27.5285C26.9939 15.7191 26.5606 16.1504 26.5606 16.6824V18.0072ZM33.6308 3.25941C34.1654 3.25941 34.5988 2.82813 34.5988 2.29613V1.02089C34.5988 0.48889 34.1654 0.0576172 33.6308 0.0576172H31.9582C31.4236 0.0576172 30.9903 0.488891 30.9903 1.02089V2.29613C30.9903 2.82813 31.4236 3.25941 31.9582 3.25941H33.6308Z" fill="white"/>
<path d="M48.9617 5.54858H47.5686C45.9261 5.54858 44.881 6.06862 44.3597 6.71278H44.2849V6.15799C44.2849 5.82164 44.0105 5.54858 43.6725 5.54858H41.4126C41.0747 5.54858 40.8003 5.82164 40.8003 6.15799V18.361C40.8003 18.6973 41.0747 18.9704 41.4126 18.9704H43.6725C44.0105 18.9704 44.2849 18.6973 44.2849 18.361V10.7738C44.2849 9.36263 45.3799 8.7433 46.6732 8.7433H47.7432C48.9629 8.7433 49.3358 9.18887 49.3358 10.4759V10.5417C49.3358 10.8781 49.6102 11.1511 49.9482 11.1511H52.233C52.571 11.1511 52.8453 10.8781 52.8453 10.5417V9.5848C52.8453 6.83689 51.4273 5.54858 48.9642 5.54858H48.9617Z" fill="white"/>
<path d="M62.2891 5.54858H59.2535C56.3925 5.54858 54.7251 6.71278 54.7251 9.46068V15.057C54.7251 17.8049 56.3925 18.9691 59.2535 18.9691H62.2891C65.1501 18.9691 66.8175 17.8049 66.8175 15.057V9.46068C66.8175 6.71278 65.1501 5.54858 62.2891 5.54858ZM63.3342 14.3632C63.3342 15.304 62.9364 15.7248 61.8164 15.7248H59.7262C58.6063 15.7248 58.2084 15.304 58.2084 14.388V10.08C58.2084 9.16405 58.6063 8.7433 59.7262 8.7433H61.8164C62.9364 8.7433 63.3342 9.16405 63.3342 10.08V14.3632Z" fill="white"/>
<path d="M77.291 5.54858H75.7483C74.1058 5.54858 73.0607 6.06862 72.5394 6.71278H72.4645V6.15799C72.4645 5.82164 72.1902 5.54858 71.8522 5.54858H69.5923C69.2544 5.54858 68.98 5.82164 68.98 6.15799V18.361C68.98 18.6973 69.2544 18.9704 69.5923 18.9704H71.8522C72.1902 18.9704 72.4645 18.6973 72.4645 18.361V10.7738C72.4645 9.36263 73.5595 8.7433 74.8279 8.7433H75.9479C77.1676 8.7433 77.6652 9.31298 77.6652 10.5752V18.3597C77.6652 18.6961 77.9396 18.9691 78.2775 18.9691H80.5623C80.9003 18.9691 81.1747 18.6961 81.1747 18.3597V9.5848C81.1747 6.83689 79.7567 5.54858 77.2935 5.54858H77.291Z" fill="white"/>
<path d="M109.72 15.7248H106.052V2.64187C106.052 2.30552 105.778 2.03247 105.44 2.03247H98.6515C98.3135 2.03247 98.0391 2.30552 98.0391 2.64187V4.61778C98.0391 4.95413 98.3135 5.22718 98.6515 5.22718H102.568V15.7261H98.1539C97.8159 15.7261 97.5415 15.9991 97.5415 16.3355V18.361C97.5415 18.6974 97.8159 18.9704 98.1539 18.9704H109.719C110.057 18.9704 110.331 18.6974 110.331 18.361V16.3355C110.331 15.9991 110.057 15.7261 109.719 15.7261L109.72 15.7248Z" fill="white"/>
<path d="M119.511 5.54858H116.476C113.615 5.54858 111.947 6.71278 111.947 9.46068V15.057C111.947 17.8049 113.615 18.9691 116.476 18.9691H119.511C122.372 18.9691 124.04 17.8049 124.04 15.057V9.46068C124.04 6.71278 122.372 5.54858 119.511 5.54858ZM120.556 14.3632C120.556 15.304 120.159 15.7248 119.039 15.7248H116.948C115.828 15.7248 115.431 15.304 115.431 14.388V10.08C115.431 9.16405 115.828 8.7433 116.948 8.7433H119.039C120.159 8.7433 120.556 9.16405 120.556 10.08V14.3632Z" fill="white"/>
<path d="M133.743 5.54858H130.832C127.971 5.54858 126.303 6.71278 126.303 9.46068V15.057C126.303 17.8049 127.971 18.9691 130.832 18.9691H133.743C136.603 18.9691 138.271 17.8049 138.271 15.057V14.0579C138.271 13.7215 137.997 13.4485 137.659 13.4485H135.399C135.061 13.4485 134.786 13.7215 134.786 14.0579V14.388C134.786 15.304 134.389 15.7248 133.269 15.7248H131.303C130.183 15.7248 129.785 15.304 129.785 14.388V10.08C129.785 9.16405 130.183 8.7433 131.303 8.7433H133.269C134.389 8.7433 134.786 9.16405 134.786 10.08V10.5417C134.786 10.8781 135.061 11.1511 135.399 11.1511H137.659C137.997 11.1511 138.271 10.8781 138.271 10.5417V9.46068C138.271 6.71278 136.603 5.54858 133.743 5.54858Z" fill="white"/>
<path d="M149.146 5.7609L145.663 9.81076H143.595V2.64065C143.595 2.3043 143.321 2.03125 142.983 2.03125H140.723C140.385 2.03125 140.11 2.3043 140.11 2.64065V18.3585C140.11 18.6949 140.385 18.968 140.723 18.968H142.983C143.321 18.968 143.595 18.6949 143.595 18.3585V12.7622L145.802 12.7783L148.496 15.0757V18.3585C148.496 18.6949 148.771 18.968 149.109 18.968H151.368C151.706 18.968 151.981 18.6949 151.981 18.3585V13.9326L148.683 11.0656L152.904 6.14938C153.107 5.91232 152.937 5.54742 152.624 5.54742H149.614C149.435 5.54742 149.266 5.62561 149.149 5.7609H149.146Z" fill="white"/>
<path d="M159.332 8.37097H161.273C162.492 8.37097 162.691 8.69243 162.691 9.41106C162.691 9.6295 162.869 9.80698 163.088 9.80698H165.601C165.821 9.80698 165.999 9.6295 165.999 9.41106V8.71725C165.999 6.81085 165.004 5.54736 161.745 5.54736H159.182C156.47 5.54736 154.579 6.48815 154.579 9.21247V9.90627C154.579 12.4817 155.774 13.4721 158.858 13.4721H160.973C162.341 13.4721 162.691 13.8432 162.691 14.6363V15.0074C162.691 15.7744 162.343 16.0971 161.248 16.0971H159.332C158.087 16.0971 157.889 15.7508 157.889 15.0322C157.889 14.7455 157.655 14.5122 157.366 14.5122H155.103C154.815 14.5122 154.58 14.7455 154.58 15.0322V15.7757C154.58 17.6821 155.576 18.9691 158.859 18.9691H161.422C164.134 18.9691 166.001 18.0283 166.001 15.304V14.537C166.001 11.9616 164.632 10.749 161.547 10.749H159.631C158.263 10.749 157.889 10.4524 157.889 9.68411V9.38747C157.889 8.62044 158.362 8.37221 159.332 8.37221V8.37097Z" fill="white"/>
<path d="M8.79237 13.0586V7.9429L8.7909 7.9414C8.7909 7.42068 9.20406 6.999 9.71425 6.999H15.4734C16.6379 6.999 17.5833 6.03559 17.5833 4.84558V2.15342C17.5833 0.964914 16.6393 0 15.4734 0H9.71425C9.20406 0 8.79237 0.367263 8.79237 0.942403V6.05809C8.79237 6.57882 8.37922 7.0005 7.86903 7.0005H2.10988C0.945401 7.0005 0 7.96391 0 9.15392V11.8461C0 13.0346 0.943931 13.9995 2.10988 13.9995H7.86903C8.37922 13.9995 8.79237 14.4212 8.79237 14.9419V20.0576C8.79237 20.5872 9.20553 21 9.71572 21H15.4749C16.6393 21 17.5847 20.0366 17.5847 18.8466V16.1544C17.5847 14.9659 16.6408 14.001 15.4749 14.001H9.71572C9.20553 14.001 8.79237 13.5793 8.79237 13.0586Z" fill="#FF7139"/>
<path d="M90.3205 8.74188C91.5314 8.74188 92.0504 9.3115 92.0504 10.5993V13.8685C92.0504 15.1563 91.5314 15.7259 90.3205 15.7259H89.159C87.8987 15.7259 86.8113 15.1068 86.8113 13.6951V10.7727C86.8113 9.36103 87.8987 8.74188 89.159 8.74188H90.3205ZM86.8113 17.831H86.8855C87.4044 18.4502 88.4424 18.9703 90.0734 18.9703H91.6797C94.1263 18.9703 95.5102 17.7072 95.5102 14.9334V9.58393C95.5102 6.83489 94.1263 5.54706 91.6797 5.54706H90.0734C88.4424 5.54706 87.4044 6.06714 86.8855 6.71106H86.8113V3.76016C86.8113 2.80477 86.0368 2.03027 85.0814 2.03027C84.1261 2.03027 83.3516 2.80477 83.3516 3.76016V17.2404C83.3516 18.1958 84.1261 18.9703 85.0814 18.9703H85.6721C86.3013 18.9703 86.8113 18.4602 86.8113 17.831Z" fill="white"/>
</svg>
